<?xml version="1.0" encoding="UTF-8" standalone="no"?>
<svg
   xmlns:dc="http://purl.org/dc/elements/1.1/"
   xmlns:cc="http://creativecommons.org/ns#"
   xmlns:rdf="http://www.w3.org/1999/02/22-rdf-syntax-ns#"
   xmlns:svg="http://www.w3.org/2000/svg"
   xmlns="http://www.w3.org/2000/svg"
   xmlns:sodipodi="http://sodipodi.sourceforge.net/DTD/sodipodi-0.dtd"
   xmlns:inkscape="http://www.inkscape.org/namespaces/inkscape"
   width="27.606022mm"
   height="13.587921mm"
   viewBox="0 0 27.606022 13.587922"
   version="1.1"
   id="svg8037"
   inkscape:version="1.0.1 (1.0.1+r73)"
   sodipodi:docname="design_19.svg">
  <defs
     id="defs8031" />
  <sodipodi:namedview
     id="base"
     pagecolor="#ffffff"
     bordercolor="#666666"
     borderopacity="1.0"
     inkscape:pageopacity="0.0"
     inkscape:pageshadow="2"
     inkscape:zoom="1.33"
     inkscape:cx="52.550338"
     inkscape:cy="50.250303"
     inkscape:document-units="mm"
     inkscape:current-layer="layer1"
     inkscape:document-rotation="0"
     showgrid="false"
     fit-margin-top="1"
     fit-margin-right="1"
     fit-margin-bottom="1"
     fit-margin-left="1"
     inkscape:window-width="1853"
     inkscape:window-height="1025"
     inkscape:window-x="67"
     inkscape:window-y="27"
     inkscape:window-maximized="1" />
  <metadata
     id="metadata8034">
    <rdf:RDF>
      <cc:Work
         rdf:about="">
        <dc:format>image/svg+xml</dc:format>
        <dc:type
           rdf:resource="http://purl.org/dc/dcmitype/StillImage" />
        <dc:title></dc:title>
      </cc:Work>
    </rdf:RDF>
  </metadata>
  <g
     inkscape:label="Capa 1"
     inkscape:groupmode="layer"
     id="layer1"
     transform="translate(-91.929402,-63.254731)">
    <g
       id="g13907"
       transform="matrix(0.35277777,0,0,-0.35277777,23.068362,118.55716)">
      <g
         id="g2058"
         transform="translate(245.8586,137.3781)">
        <path
           d="m 0,0 -10.506,4.371 c -0.097,0.04 -0.208,0.04 -0.306,0 L -26.57,-2.186 c -0.148,-0.062 -0.245,-0.207 -0.245,-0.367 0,-0.161 0.097,-0.306 0.245,-0.368 l 10.506,-4.371 c 0.048,-0.02 0.101,-0.03 0.152,-0.03 0.052,0 0.104,0.01 0.153,0.03 L 0,-0.736 c 0.148,0.063 0.245,0.208 0.245,0.368 C 0.245,-0.207 0.148,-0.062 0,0"
           style="fill:#dadada;fill-opacity:1;fill-rule:nonzero;stroke:none"
           id="path2060" />
      </g>
      <g
         id="g2062"
         transform="translate(238.1262,142.7639)">
        <path
           d="M 0,0 C 0,-0.161 0.097,-0.306 0.245,-0.368 L 10.75,-4.739 c 0.049,-0.02 0.102,-0.03 0.153,-0.03 0.052,0 0.105,0.01 0.153,0.03 l 15.759,6.557 c 0.148,0.062 0.245,0.207 0.245,0.368 0,0.16 -0.097,0.305 -0.245,0.368 L 16.31,6.925 c -0.098,0.039 -0.209,0.039 -0.306,0 L 0.245,0.368 C 0.097,0.306 0,0.161 0,0"
           style="fill:#dadada;fill-opacity:1;fill-rule:nonzero;stroke:none"
           id="path2064" />
      </g>
      <g
         id="g2066"
         transform="translate(227.0202,129.071)">
        <path
           d="m 0,0 c 0,0.161 -0.097,0.306 -0.245,0.368 l -10.505,4.37 c -0.098,0.04 -0.209,0.04 -0.306,0 l -15.759,-6.555 c -0.148,-0.063 -0.245,-0.208 -0.245,-0.369 0,-0.16 0.097,-0.305 0.245,-0.367 l 10.506,-4.371 c 0.049,-0.02 0.101,-0.031 0.153,-0.031 0.052,0 0.104,0.011 0.153,0.031 l 15.758,6.556 C -0.097,-0.306 0,-0.161 0,0"
           style="fill:#dadada;fill-opacity:1;fill-rule:nonzero;stroke:none"
           id="path2068" />
      </g>
      <g
         id="g2070"
         transform="translate(251.2878,128.4025)">
        <path
           d="m 0,0 -10.506,4.371 c -0.098,0.039 -0.208,0.039 -0.306,0 l -15.759,-6.557 c -0.148,-0.062 -0.244,-0.207 -0.244,-0.367 0,-0.161 0.096,-0.306 0.244,-0.368 l 10.507,-4.371 c 0.048,-0.02 0.101,-0.03 0.152,-0.03 0.052,0 0.104,0.01 0.153,0.03 L 0,-0.735 c 0.148,0.062 0.245,0.207 0.245,0.367 C 0.245,-0.207 0.148,-0.062 0,0"
           style="fill:#dadada;fill-opacity:1;fill-rule:nonzero;stroke:none"
           id="path2072" />
      </g>
      <g
         id="g2074"
         transform="translate(217.3596,144.5817)">
        <path
           d="m 0,0 10.506,-4.371 c 0.049,-0.02 0.101,-0.03 0.153,-0.03 0.051,0 0.104,0.01 0.153,0.03 L 26.57,2.186 c 0.149,0.062 0.245,0.207 0.245,0.367 0,0.161 -0.096,0.306 -0.245,0.368 L 16.064,7.292 c -0.097,0.04 -0.208,0.04 -0.306,0 L 0,0.736 C -0.148,0.673 -0.245,0.528 -0.245,0.368 -0.245,0.207 -0.148,0.062 0,0"
           style="fill:#dadada;fill-opacity:1;fill-rule:nonzero;stroke:none"
           id="path2076" />
      </g>
      <g
         id="g2078"
         transform="translate(208.9353,132.2414)">
        <path
           d="m 0,0 c 0.052,0 0.104,0.01 0.153,0.03 l 15.759,6.556 c 0.148,0.063 0.245,0.208 0.245,0.369 0,0.16 -0.097,0.305 -0.245,0.367 l -10.506,4.37 c -0.097,0.04 -0.208,0.04 -0.306,0 L -10.659,5.137 c -0.148,-0.062 -0.245,-0.207 -0.245,-0.368 0,-0.161 0.097,-0.306 0.245,-0.368 L -0.153,0.03 C -0.104,0.01 -0.052,0 0,0"
           style="fill:#dadada;fill-opacity:1;fill-rule:nonzero;stroke:none"
           id="path2080" />
      </g>
      <g
         id="g2082"
         transform="translate(270.3703,136.342)">
        <path
           d="m 0,0 -10.505,4.371 c -0.098,0.04 -0.209,0.04 -0.306,0 L -26.57,-2.186 c -0.148,-0.062 -0.245,-0.207 -0.245,-0.368 0,-0.16 0.097,-0.305 0.245,-0.367 l 10.506,-4.371 c 0.048,-0.02 0.101,-0.031 0.152,-0.031 0.052,0 0.105,0.011 0.153,0.031 L 0,-0.736 c 0.148,0.062 0.245,0.208 0.245,0.368 C 0.245,-0.208 0.148,-0.062 0,0"
           style="fill:#dadada;fill-opacity:1;fill-rule:nonzero;stroke:none"
           id="path2084" />
      </g>
      <g
         id="g2086"
         transform="translate(245.904,147.9914)">
        <path
           d="M 0,0 8.378,3.486 18.884,-0.885 3.125,-7.441 -7.38,-3.07 l 4.249,1.768"
           style="fill:#ffffff;fill-opacity:1;fill-rule:nonzero;stroke:none"
           id="path2088" />
      </g>
      <g
         id="g2090"
         transform="translate(249.0295,140.2844)">
        <path
           d="m 0,0 c -0.035,0 -0.069,0.007 -0.102,0.021 l -10.506,4.371 c -0.099,0.041 -0.163,0.138 -0.163,0.245 0,0.107 0.064,0.204 0.163,0.244 l 4.249,1.768 C -6.223,6.707 -6.068,6.642 -6.012,6.506 -5.956,6.372 -6.02,6.216 -6.155,6.16 L -9.815,4.637 0,0.553 15.068,6.822 5.253,10.906 -3.023,7.463 c -0.135,-0.058 -0.291,0.006 -0.348,0.142 -0.056,0.135 0.008,0.291 0.143,0.347 l 8.379,3.486 c 0.065,0.027 0.139,0.027 0.204,0 L 15.861,7.067 c 0.098,-0.041 0.163,-0.138 0.163,-0.245 0,-0.107 -0.065,-0.204 -0.163,-0.244 L 0.102,0.021 C 0.069,0.007 0.035,0 0,0"
           style="fill:#41404d;fill-opacity:1;fill-rule:nonzero;stroke:none"
           id="path2092" />
      </g>
      <g
         id="g2094"
         transform="translate(262.2268,146.0422)">
        <path
           d="M 0,0 -10.506,4.371 -7.949,5.436 2.557,1.064 Z"
           style="fill:#ffffff;fill-opacity:1;fill-rule:nonzero;stroke:none"
           id="path2096" />
      </g>
      <g
         id="g2098"
         transform="translate(252.4113,150.4133)">
        <path
           d="m 0,0 9.815,-4.084 1.867,0.777 -9.816,4.084 z m 9.815,-4.636 c -0.034,0 -0.069,0.007 -0.102,0.02 l -10.505,4.372 c -0.1,0.04 -0.164,0.138 -0.164,0.244 0,0.107 0.064,0.205 0.164,0.245 l 2.556,1.064 c 0.065,0.027 0.139,0.027 0.204,0 l 10.506,-4.371 c 0.099,-0.041 0.163,-0.138 0.163,-0.245 0,-0.107 -0.064,-0.204 -0.163,-0.244 L 9.917,-4.616 C 9.885,-4.629 9.85,-4.636 9.815,-4.636"
           style="fill:#41404d;fill-opacity:1;fill-rule:nonzero;stroke:none"
           id="path2100" />
      </g>
      <g
         id="g2102"
         transform="translate(254.5603,144.8513)">
        <path
           d="M 0,0 -5.986,2.491 -2.802,3.787 3.184,1.296 Z"
           style="fill:#dadada;fill-opacity:1;fill-rule:nonzero;stroke:none"
           id="path2104" />
      </g>
      <g
         id="g2106"
         transform="translate(249.2707,147.3386)">
        <path
           d="m 0,0 5.291,-2.2 2.485,1.012 -5.29,2.2 z m 5.29,-2.752 c -0.035,0 -0.07,0.007 -0.103,0.021 l -5.986,2.49 c -0.099,0.04 -0.164,0.137 -0.163,0.245 0,0.108 0.066,0.204 0.165,0.245 L 2.387,1.544 C 2.453,1.571 2.525,1.57 2.589,1.543 l 5.987,-2.49 C 8.675,-0.987 8.739,-1.085 8.739,-1.192 8.738,-1.3 8.673,-1.397 8.574,-1.437 L 5.39,-2.732 c -0.033,-0.014 -0.066,-0.02 -0.1,-0.02"
           style="fill:#41404d;fill-opacity:1;fill-rule:nonzero;stroke:none"
           id="path2108" />
      </g>
      <g
         id="g2110"
         transform="translate(210.3508,133.1999)">
        <path
           d="M 0,0 5.766,2.399 16.272,-1.972 0.513,-8.528 -9.993,-4.157 -2.769,-1.152"
           style="fill:#ffffff;fill-opacity:1;fill-rule:nonzero;stroke:none"
           id="path2112" />
      </g>
      <g
         id="g2114"
         transform="translate(210.864,124.4064)">
        <path
           d="m 0,0 c -0.035,0 -0.069,0.007 -0.102,0.021 l -10.505,4.371 c -0.1,0.04 -0.164,0.137 -0.164,0.244 0,0.107 0.064,0.204 0.164,0.245 l 7.224,3.005 C -3.246,7.944 -3.093,7.879 -3.036,7.743 -2.98,7.608 -3.044,7.453 -3.179,7.397 L -9.815,4.636 0,0.552 15.068,6.822 5.253,10.905 -0.411,8.548 c -0.135,-0.059 -0.29,0.007 -0.347,0.143 -0.056,0.135 0.008,0.29 0.143,0.347 l 5.766,2.399 c 0.065,0.026 0.139,0.026 0.204,0 L 15.861,7.066 c 0.099,-0.04 0.163,-0.137 0.163,-0.244 0,-0.107 -0.064,-0.204 -0.163,-0.245 L 0.102,0.021 C 0.07,0.007 0.035,0 0,0"
           style="fill:#41404d;fill-opacity:1;fill-rule:nonzero;stroke:none"
           id="path2116" />
      </g>
      <g
         id="g2118"
         transform="translate(224.0661,130.1638)">
        <path
           d="M 0,0 -10.506,4.371 -7.949,5.435 2.557,1.064 Z"
           style="fill:#ffffff;fill-opacity:1;fill-rule:nonzero;stroke:none"
           id="path2120" />
      </g>
      <g
         id="g2122"
         transform="translate(214.2512,134.5339)">
        <path
           d="m 0,0 9.815,-4.083 1.866,0.777 -9.815,4.083 z m 9.815,-4.635 c -0.035,0 -0.069,0.007 -0.102,0.021 l -10.505,4.369 c -0.1,0.041 -0.164,0.139 -0.164,0.245 0,0.107 0.064,0.204 0.164,0.245 l 2.556,1.064 c 0.065,0.027 0.138,0.027 0.204,0 l 10.506,-4.37 c 0.099,-0.041 0.163,-0.138 0.163,-0.245 0,-0.107 -0.064,-0.204 -0.163,-0.244 L 9.917,-4.614 C 9.885,-4.628 9.85,-4.635 9.815,-4.635"
           style="fill:#41404d;fill-opacity:1;fill-rule:nonzero;stroke:none"
           id="path2124" />
      </g>
      <g
         id="g2126"
         transform="translate(240.6291,134.5627)">
        <path
           d="m 0,0 10.506,-4.371 -15.759,-6.557 -10.506,4.371 z"
           style="fill:#ffffff;fill-opacity:1;fill-rule:nonzero;stroke:none"
           id="path2128" />
      </g>
      <g
         id="g2130"
         transform="translate(225.5612,128.0065)">
        <path
           d="m 0,0 9.815,-4.084 15.068,6.27 -9.815,4.083 z m 9.815,-4.637 c -0.035,0 -0.069,0.008 -0.102,0.021 l -10.506,4.371 c -0.099,0.041 -0.163,0.138 -0.163,0.245 0,0.106 0.064,0.204 0.163,0.245 L 14.966,6.8 c 0.065,0.027 0.138,0.027 0.204,0 L 25.676,2.43 c 0.098,-0.04 0.163,-0.138 0.163,-0.244 0,-0.107 -0.065,-0.205 -0.163,-0.245 L 9.917,-4.616 C 9.884,-4.629 9.85,-4.637 9.815,-4.637"
           style="fill:#41404d;fill-opacity:1;fill-rule:nonzero;stroke:none"
           id="path2132" />
      </g>
      <g
         id="g2134"
         transform="translate(235.7654,125.3024)">
        <path
           d="m 0,0 c -0.034,0 -0.068,0.006 -0.102,0.021 l -6.384,2.656 c -0.135,0.056 -0.199,0.211 -0.143,0.346 0.056,0.137 0.212,0.202 0.347,0.143 L 0.102,0.51 C 0.237,0.454 0.301,0.299 0.245,0.164 0.203,0.062 0.104,0 0,0"
           style="fill:#41404d;fill-opacity:1;fill-rule:nonzero;stroke:none"
           id="path2136" />
      </g>
      <g
         id="g2138"
         transform="translate(248.5788,129.1271)">
        <path
           d="M 0,0 -10.506,4.371 -7.949,5.436 2.557,1.064 Z"
           style="fill:#ffffff;fill-opacity:1;fill-rule:nonzero;stroke:none"
           id="path2140" />
      </g>
      <g
         id="g2142"
         transform="translate(238.7634,133.4977)">
        <path
           d="m 0,0 9.815,-4.083 1.866,0.777 -9.815,4.084 z m 9.815,-4.635 c -0.034,0 -0.069,0.007 -0.102,0.02 l -10.505,4.37 c -0.099,0.041 -0.164,0.138 -0.164,0.245 0,0.107 0.065,0.204 0.164,0.245 L 1.764,1.31 c 0.066,0.027 0.139,0.027 0.204,0 l 10.506,-4.371 c 0.099,-0.041 0.163,-0.138 0.163,-0.245 0,-0.107 -0.064,-0.204 -0.163,-0.244 L 9.917,-4.615 C 9.885,-4.628 9.85,-4.635 9.815,-4.635"
           style="fill:#41404d;fill-opacity:1;fill-rule:nonzero;stroke:none"
           id="path2144" />
      </g>
      <g
         id="g2146"
         transform="translate(238.0027,126.7184)">
        <path
           d="m 0,0 -6.076,2.528 5.81,2.328 6.077,-2.528 z"
           style="fill:#dadada;fill-opacity:1;fill-rule:nonzero;stroke:none"
           id="path2148" />
      </g>
      <g
         id="g2150"
         transform="translate(232.6277,129.2414)">
        <path
           d="m 0,0 5.377,-2.236 5.107,2.046 -5.377,2.236 z m 5.375,-2.789 c -0.035,0 -0.069,0.008 -0.102,0.021 L -0.804,-0.24 C -0.903,-0.199 -0.967,-0.102 -0.967,0.006 -0.966,0.114 -0.9,0.21 -0.8,0.251 L 5.011,2.58 c 0.063,0.024 0.136,0.024 0.2,-0.002 L 11.288,0.05 c 0.099,-0.042 0.163,-0.139 0.163,-0.247 -0.001,-0.108 -0.066,-0.204 -0.167,-0.244 L 5.473,-2.77 C 5.442,-2.782 5.409,-2.789 5.375,-2.789"
           style="fill:#41404d;fill-opacity:1;fill-rule:nonzero;stroke:none"
           id="path2152" />
      </g>
      <g
         id="g2154"
         transform="translate(229.0427,151.9035)">
        <path
           d="m 0,0 4.229,1.759 10.505,-4.37 -15.758,-6.557 -10.506,4.371 8.727,3.631"
           style="fill:#ffffff;fill-opacity:1;fill-rule:nonzero;stroke:none"
           id="path2156" />
      </g>
      <g
         id="g2158"
         transform="translate(228.0183,142.4699)">
        <path
           d="m 0,0 c -0.035,0 -0.069,0.007 -0.102,0.021 l -10.506,4.371 c -0.099,0.041 -0.163,0.138 -0.163,0.245 0,0.107 0.064,0.204 0.163,0.244 l 8.727,3.632 C -1.745,8.57 -1.59,8.505 -1.534,8.37 -1.478,8.235 -1.542,8.079 -1.677,8.023 L -9.815,4.637 0,0.553 15.068,6.822 5.253,10.906 1.126,9.189 C 0.99,9.13 0.836,9.195 0.779,9.332 0.723,9.467 0.787,9.623 0.922,9.678 l 4.229,1.76 c 0.065,0.027 0.139,0.027 0.204,0 L 15.861,7.067 c 0.098,-0.041 0.163,-0.138 0.163,-0.245 0,-0.107 -0.065,-0.204 -0.163,-0.244 L 0.102,0.021 C 0.069,0.007 0.035,0 0,0"
           style="fill:#41404d;fill-opacity:1;fill-rule:nonzero;stroke:none"
           id="path2160" />
      </g>
      <g
         id="g2162"
         transform="translate(241.2204,148.2277)">
        <path
           d="M 0,0 -10.506,4.371 -7.949,5.435 2.557,1.064 Z"
           style="fill:#ffffff;fill-opacity:1;fill-rule:nonzero;stroke:none"
           id="path2164" />
      </g>
      <g
         id="g2166"
         transform="translate(231.4055,152.5993)">
        <path
           d="m 0,0 9.815,-4.084 1.866,0.777 -9.815,4.084 z m 9.815,-4.637 c -0.035,0 -0.069,0.008 -0.102,0.021 l -10.506,4.371 c -0.099,0.04 -0.163,0.138 -0.163,0.245 0,0.106 0.064,0.204 0.163,0.244 l 2.557,1.065 c 0.065,0.026 0.139,0.026 0.204,0 l 10.506,-4.372 c 0.098,-0.04 0.163,-0.137 0.163,-0.244 0,-0.107 -0.065,-0.204 -0.163,-0.245 L 9.917,-4.616 C 9.884,-4.629 9.85,-4.637 9.815,-4.637"
           style="fill:#41404d;fill-opacity:1;fill-rule:nonzero;stroke:none"
           id="path2168" />
      </g>
      <g
         id="g2170"
         transform="translate(228.5549,144.466)">
        <path
           d="m 0,0 c -0.034,0 -0.068,0.006 -0.102,0.021 l -6.384,2.656 c -0.135,0.056 -0.199,0.211 -0.143,0.346 0.056,0.137 0.211,0.203 0.347,0.143 L 0.102,0.51 C 0.237,0.454 0.301,0.298 0.245,0.164 0.203,0.061 0.104,0 0,0"
           style="fill:#41404d;fill-opacity:1;fill-rule:nonzero;stroke:none"
           id="path2172" />
      </g>
      <g
         id="g2174"
         transform="translate(230.7922,145.881)">
        <path
           d="m 0,0 -6.076,2.528 5.81,2.328 6.077,-2.527 z"
           style="fill:#dadada;fill-opacity:1;fill-rule:nonzero;stroke:none"
           id="path2176" />
      </g>
      <g
         id="g2178"
         transform="translate(225.4177,148.405)">
        <path
           d="m 0,0 5.376,-2.236 5.108,2.046 -5.377,2.236 z m 5.374,-2.789 c -0.035,0 -0.069,0.008 -0.102,0.021 L -0.804,-0.24 C -0.903,-0.199 -0.967,-0.102 -0.967,0.006 -0.966,0.114 -0.9,0.21 -0.8,0.251 L 5.011,2.58 c 0.063,0.024 0.136,0.024 0.2,-0.002 L 11.288,0.049 C 11.387,0.007 11.451,-0.09 11.451,-0.198 11.45,-0.306 11.384,-0.402 11.284,-0.442 L 5.473,-2.77 C 5.441,-2.782 5.408,-2.789 5.374,-2.789"
           style="fill:#41404d;fill-opacity:1;fill-rule:nonzero;stroke:none"
           id="path2180" />
      </g>
      <g
         id="g2182"
         transform="translate(214.1882,145.7238)">
        <path
           d="m 0,0 10.506,-4.371 -15.759,-6.556 -10.506,4.37 z"
           style="fill:#ffffff;fill-opacity:1;fill-rule:nonzero;stroke:none"
           id="path2184" />
      </g>
      <g
         id="g2186"
         transform="translate(199.1203,139.1677)">
        <path
           d="m 0,0 9.815,-4.084 15.068,6.27 -9.815,4.083 z m 9.815,-4.637 c -0.034,0 -0.069,0.008 -0.102,0.021 l -10.506,4.371 c -0.099,0.04 -0.163,0.138 -0.163,0.245 0,0.106 0.064,0.204 0.163,0.244 L 14.966,6.8 c 0.065,0.027 0.138,0.027 0.204,0 L 25.675,2.43 c 0.099,-0.04 0.164,-0.138 0.164,-0.244 0,-0.107 -0.065,-0.205 -0.164,-0.245 L 9.917,-4.616 C 9.885,-4.629 9.85,-4.637 9.815,-4.637"
           style="fill:#41404d;fill-opacity:1;fill-rule:nonzero;stroke:none"
           id="path2188" />
      </g>
      <g
         id="g2190"
         transform="translate(222.1374,140.2883)">
        <path
           d="M 0,0 -10.506,4.371 -7.949,5.436 2.557,1.064 Z"
           style="fill:#ffffff;fill-opacity:1;fill-rule:nonzero;stroke:none"
           id="path2192" />
      </g>
      <g
         id="g2194"
         transform="translate(212.3225,144.6589)">
        <path
           d="m 0,0 9.815,-4.083 1.866,0.777 -9.815,4.083 z m 9.815,-4.635 c -0.035,0 -0.069,0.007 -0.102,0.02 l -10.506,4.37 c -0.099,0.041 -0.163,0.138 -0.163,0.245 0,0.107 0.064,0.204 0.163,0.245 l 2.557,1.064 c 0.065,0.027 0.138,0.027 0.204,0 l 10.505,-4.371 c 0.099,-0.04 0.164,-0.137 0.164,-0.244 0,-0.107 -0.065,-0.204 -0.164,-0.244 L 9.917,-4.615 C 9.885,-4.628 9.85,-4.635 9.815,-4.635"
           style="fill:#41404d;fill-opacity:1;fill-rule:nonzero;stroke:none"
           id="path2196" />
      </g>
      <g
         id="g2198"
         transform="translate(211.882,138.0461)">
        <path
           d="M 0,0 -5.987,2.49 -4.53,3.097 1.457,0.606 Z"
           style="fill:#dadada;fill-opacity:1;fill-rule:nonzero;stroke:none"
           id="path2200" />
      </g>
      <g
         id="g2202"
         transform="translate(206.5857,140.5363)">
        <path
           d="m 0,0 5.296,-2.203 0.766,0.319 -5.295,2.203 z m 5.296,-2.755 c -0.035,0 -0.069,0.007 -0.102,0.02 l -5.986,2.49 c -0.1,0.041 -0.164,0.139 -0.164,0.245 0,0.107 0.064,0.204 0.164,0.245 l 1.457,0.606 c 0.064,0.027 0.138,0.027 0.204,0 l 5.986,-2.49 c 0.099,-0.041 0.164,-0.138 0.164,-0.245 0,-0.107 -0.065,-0.204 -0.164,-0.244 L 5.398,-2.735 C 5.366,-2.748 5.331,-2.755 5.296,-2.755"
           style="fill:#41404d;fill-opacity:1;fill-rule:nonzero;stroke:none"
           id="path2204" />
      </g>
      <g
         id="g2206"
         transform="translate(208.4504,137.6369)">
        <path
           d="M 0,0 C -0.034,0 -0.068,0.006 -0.102,0.021 L -2.935,1.2 c -0.135,0.056 -0.199,0.211 -0.143,0.346 0.057,0.136 0.21,0.202 0.348,0.143 L 0.102,0.51 C 0.237,0.454 0.301,0.298 0.245,0.164 0.203,0.061 0.104,0 0,0"
           style="fill:#41404d;fill-opacity:1;fill-rule:nonzero;stroke:none"
           id="path2208" />
      </g>
      <g
         id="g2210"
         transform="translate(208.0085,142.863)">
        <path
           d="m 0,0 9.815,-4.084 6.181,2.574 -9.815,4.083 z m 9.815,-4.637 c -0.035,0 -0.069,0.008 -0.102,0.021 l -10.505,4.371 c -0.1,0.041 -0.164,0.138 -0.164,0.245 0,0.106 0.064,0.204 0.164,0.245 l 6.871,2.859 c 0.066,0.028 0.139,0.028 0.204,0 l 10.506,-4.37 c 0.099,-0.04 0.163,-0.137 0.163,-0.244 0,-0.107 -0.064,-0.204 -0.163,-0.244 L 9.917,-4.616 C 9.884,-4.629 9.85,-4.637 9.815,-4.637"
           style="fill:#41404d;fill-opacity:1;fill-rule:nonzero;stroke:none"
           id="path2212" />
      </g>
      <g
         id="g2214"
         transform="translate(262.2029,134.7966)">
        <path
           d="M 0,0 -7.744,-3.222 -18.25,1.149 -2.491,7.705 8.015,3.334 3.316,1.379"
           style="fill:#ffffff;fill-opacity:1;fill-rule:nonzero;stroke:none"
           id="path2216" />
      </g>
      <g
         id="g2218"
         transform="translate(254.4587,131.3093)">
        <path
           d="m 0,0 c -0.035,0 -0.069,0.007 -0.102,0.021 l -10.506,4.371 c -0.099,0.04 -0.163,0.137 -0.163,0.244 0,0.107 0.064,0.204 0.163,0.245 l 15.759,6.557 c 0.065,0.026 0.139,0.026 0.204,0 L 15.861,7.066 c 0.099,-0.04 0.163,-0.137 0.163,-0.244 0,-0.107 -0.064,-0.204 -0.163,-0.245 L 11.162,4.622 c -0.135,-0.06 -0.29,0.006 -0.347,0.143 -0.056,0.134 0.008,0.29 0.143,0.346 L 15.068,6.822 5.253,10.906 -9.815,4.636 0,0.552 7.642,3.731 C 7.777,3.789 7.933,3.724 7.989,3.588 8.045,3.454 7.981,3.298 7.846,3.242 L 0.102,0.021 C 0.069,0.007 0.035,0 0,0"
           style="fill:#41404d;fill-opacity:1;fill-rule:nonzero;stroke:none"
           id="path2220" />
      </g>
      <g
         id="g2222"
         transform="translate(267.6609,137.0666)">
        <path
           d="M 0,0 -10.505,4.371 -7.949,5.435 2.557,1.064 Z"
           style="fill:#ffffff;fill-opacity:1;fill-rule:nonzero;stroke:none"
           id="path2224" />
      </g>
      <g
         id="g2226"
         transform="translate(257.8459,141.4382)">
        <path
           d="m 0,0 9.815,-4.084 1.866,0.777 -9.815,4.084 z m 9.815,-4.637 c -0.035,0 -0.069,0.008 -0.102,0.021 l -10.506,4.371 c -0.099,0.04 -0.163,0.138 -0.163,0.245 0,0.106 0.064,0.204 0.163,0.244 l 2.557,1.065 c 0.065,0.026 0.139,0.026 0.204,0 l 10.506,-4.372 c 0.099,-0.04 0.163,-0.137 0.163,-0.244 0,-0.107 -0.064,-0.204 -0.163,-0.245 L 9.917,-4.616 C 9.884,-4.629 9.85,-4.637 9.815,-4.637"
           style="fill:#41404d;fill-opacity:1;fill-rule:nonzero;stroke:none"
           id="path2228" />
      </g>
      <g
         id="g2230"
         transform="translate(261.1628,136.3713)">
        <path
           d="m 0,0 c -0.034,0 -0.068,0.006 -0.102,0.021 l -5.491,2.284 c -0.135,0.056 -0.199,0.212 -0.143,0.346 0.057,0.137 0.211,0.201 0.347,0.143 L 0.102,0.51 C 0.237,0.454 0.301,0.299 0.245,0.164 0.203,0.062 0.104,0 0,0"
           style="fill:#41404d;fill-opacity:1;fill-rule:nonzero;stroke:none"
           id="path2232" />
      </g>
      <g
         id="g2234"
         transform="translate(258.0656,136.1623)">
        <path
           d="m 0,0 c -0.035,0 -0.069,0.006 -0.103,0.021 l -2.625,1.108 c -0.135,0.058 -0.198,0.213 -0.141,0.349 0.058,0.134 0.215,0.199 0.348,0.141 L 0.103,0.51 C 0.238,0.453 0.302,0.297 0.245,0.162 0.202,0.061 0.103,0 0,0"
           style="fill:#41404d;fill-opacity:1;fill-rule:nonzero;stroke:none"
           id="path2236" />
      </g>
      <g
         id="g2238"
         transform="translate(235.1999,143.509)">
        <path
           d="m 0,0 10.506,-4.371 -15.759,-6.556 -10.506,4.371 z"
           style="fill:#f4c151;fill-opacity:1;fill-rule:nonzero;stroke:none"
           id="path2240" />
      </g>
      <g
         id="g2242"
         transform="translate(220.132,136.9528)">
        <path
           d="m 0,0 9.815,-4.084 15.068,6.27 -9.815,4.084 z m 9.815,-4.636 c -0.035,0 -0.07,0.007 -0.102,0.02 l -10.506,4.371 c -0.099,0.041 -0.163,0.138 -0.163,0.245 0,0.107 0.064,0.204 0.163,0.245 l 15.759,6.556 c 0.065,0.027 0.138,0.027 0.204,0 L 25.676,2.43 c 0.098,-0.04 0.163,-0.138 0.163,-0.244 0,-0.107 -0.065,-0.205 -0.163,-0.245 L 9.917,-4.616 C 9.884,-4.629 9.85,-4.636 9.815,-4.636"
           style="fill:#41404d;fill-opacity:1;fill-rule:nonzero;stroke:none"
           id="path2244" />
      </g>
      <g
         id="g2246"
         transform="translate(233.3342,142.4455)">
        <path
           d="m 0,0 9.815,-4.084 1.866,0.777 -9.815,4.084 z m 9.815,-4.637 c -0.035,0 -0.07,0.008 -0.102,0.021 l -10.506,4.371 c -0.099,0.04 -0.163,0.138 -0.163,0.245 0,0.106 0.064,0.204 0.163,0.244 l 2.557,1.065 c 0.065,0.026 0.138,0.026 0.204,0 l 10.506,-4.372 c 0.098,-0.04 0.163,-0.137 0.163,-0.244 0,-0.107 -0.065,-0.204 -0.163,-0.245 L 9.917,-4.616 C 9.884,-4.629 9.85,-4.637 9.815,-4.637"
           style="fill:#41404d;fill-opacity:1;fill-rule:nonzero;stroke:none"
           id="path2248" />
      </g>
      <g
         id="g2250"
         transform="translate(230.4944,134.3757)">
        <path
           d="M 0,0 C -0.034,0 -0.068,0.006 -0.102,0.021 L -6.335,2.614 C -6.47,2.67 -6.534,2.826 -6.478,2.96 c 0.057,0.137 0.211,0.203 0.347,0.144 L 0.102,0.51 C 0.237,0.454 0.301,0.298 0.245,0.164 0.203,0.061 0.104,0 0,0"
           style="fill:#41404d;fill-opacity:1;fill-rule:nonzero;stroke:none"
           id="path2252" />
      </g>
      <g
         id="g2254"
         transform="translate(236.7165,138.5236)">
        <path
           d="m 0,0 c 0,-0.829 -1.432,-1.501 -3.198,-1.501 -1.766,0 -3.198,0.672 -3.198,1.501 0,0.83 1.432,1.502 3.198,1.502 C -1.432,1.502 0,0.83 0,0"
           style="fill:#ffffff;fill-opacity:1;fill-rule:nonzero;stroke:none"
           id="path2256" />
      </g>
      <g
         id="g2258"
         transform="translate(233.5183,139.7604)">
        <path
           d="m 0,0 c -1.728,0 -2.932,-0.652 -2.932,-1.236 0,-0.585 1.204,-1.237 2.932,-1.237 1.729,0 2.933,0.652 2.933,1.237 C 2.933,-0.652 1.729,0 0,0 m 0,-3.003 c -1.941,0 -3.463,0.776 -3.463,1.767 0,0.99 1.522,1.766 3.463,1.766 1.942,0 3.463,-0.776 3.463,-1.766 0,-0.991 -1.521,-1.767 -3.463,-1.767"
           style="fill:#41404d;fill-opacity:1;fill-rule:nonzero;stroke:none"
           id="path2260" />
      </g>
    </g>
  </g>
</svg>
