<?xml version="1.0" encoding="UTF-8"?>
<!DOCTYPE svg PUBLIC "-//W3C//DTD SVG 1.1//EN" "http://www.w3.org/Graphics/SVG/1.1/DTD/svg11.dtd">
<!-- Creator: CorelDRAW X6 -->
<svg xmlns="http://www.w3.org/2000/svg" xml:space="preserve" width="100%" height="100%" version="1.1" style="shape-rendering:geometricPrecision; text-rendering:geometricPrecision; image-rendering:optimizeQuality; fill-rule:evenodd; clip-rule:evenodd"
viewBox="0 0 500 500"
 xmlns:xlink="http://www.w3.org/1999/xlink">
 <defs>
  <style type="text/css">
   <![CDATA[
    .fil2 {fill:url(#id0)}
    .fil1 {fill:url(#id1)}
    .fil3 {fill:url(#id2)}
   ]]>
  </style>
  <linearGradient id="id0" gradientUnits="userSpaceOnUse" x1="82.506" y1="250.004" x2="417.504" y2="250.004">
   <stop offset="0" style="stop-color:#8A8A8A"/>
   <stop offset="0.14902" style="stop-color:#CBCBCB"/>
   <stop offset="0.270588" style="stop-color:#F2F2F2"/>
   <stop offset="0.411765" style="stop-color:#F2F2F2"/>
   <stop offset="0.74902" style="stop-color:#E5E5E5"/>
   <stop offset="1" style="stop-color:#8A8A8A"/>
  </linearGradient>
  <linearGradient id="id1" gradientUnits="userSpaceOnUse" x1="89.206" y1="250.004" x2="410.804" y2="250.004">
   <stop offset="0" style="stop-color:#5D5D5D"/>
   <stop offset="0.658824" style="stop-color:#8B8B8B"/>
   <stop offset="1" style="stop-color:#515151"/>
  </linearGradient>
  <linearGradient id="id2" gradientUnits="userSpaceOnUse" x1="102.3" y1="250.004" x2="397.71" y2="250.004">
   <stop offset="0" style="stop-color:#006DB6"/>
   <stop offset="0.121569" style="stop-color:#0083DB"/>
   <stop offset="0.321569" style="stop-color:#A2DAFF"/>
   <stop offset="0.639216" style="stop-color:#46B5FF"/>
   <stop offset="0.858824" style="stop-color:#0099FF"/>
   <stop offset="1" style="stop-color:#006DB6"/>
  </linearGradient>
 </defs>
 <g id="Layer_x0020_1">
  <metadata id="CorelCorpID_0Corel-Layer"/>
  <path class="fil1" d="M418 465l0 5c0,5 -5,10 -11,10l-314 0c-6,0 -10,-5 -10,-10l0 -5c0,5 4,10 10,10l314 0c6,0 11,-5 11,-10zm0 -430l0 -5c0,-5 -5,-10 -11,-10l-314 0c-6,0 -10,5 -10,10l0 5c0,-5 4,-10 10,-10l314 0c6,0 11,5 11,10z"/>
  <path class="fil2" d="M83 360l335 0 0 105c0,5 -5,10 -11,10l-314 0c-6,0 -10,-5 -10,-10l0 -105zm335 -175l-335 0 0 130 335 0 0 -130zm-335 -45l335 0 0 -105c0,-5 -5,-10 -11,-10l-314 0c-6,0 -10,5 -10,10l0 105z"/>
  <path class="fil3" d="M83 315l335 0c-13,0 -23,10 -23,23 0,12 10,22 23,22l-336 0c13,0 23,-10 23,-22 0,-13 -10,-23 -22,-23zm0 -175l335 0c-13,0 -23,10 -23,23 0,12 10,22 23,22l-336 0c13,0 23,-10 23,-22 0,-13 -10,-23 -22,-23z"/>
 </g>
</svg>
